<svg width="122" height="34" viewBox="0 0 122 34" fill="none" xmlns="http://www.w3.org/2000/svg">
<g clip-path="url(#clip0_261_2718)">
<line x1="1" y1="10" x2="19" y2="10" stroke="#1D9FB9" stroke-width="2" stroke-linecap="round"/>
<line x1="6" y1="17.5" x2="19" y2="17.5" stroke="#1D9FB9" stroke-width="2" stroke-linecap="round"/>
<line x1="11" y1="25" x2="19" y2="25" stroke="#1D9FB9" stroke-width="2" stroke-linecap="round"/>
<circle cx="38.5" cy="17.5" r="12.5" stroke="#1D9FB9" stroke-width="2"/>
<path fill-rule="evenodd" clip-rule="evenodd" d="M38.6307 30C45.0541 30 50.2614 24.4036 50.2614 17.5C50.2614 10.5964 45.0541 5 38.6307 5C32.2072 5 27 10.5964 27 17.5C27 24.4036 32.2072 30 38.6307 30ZM35.1297 5.89496C32.8317 6.71696 30.8605 8.32132 29.4828 10.4181L31.1942 15.9029L27.4653 18.9279C27.6675 20.8514 28.2798 22.6395 29.2049 24.1862L34.3586 24.1623L35.9496 29.4084C36.8155 29.6403 37.7207 29.7633 38.6524 29.7633C40.1792 29.7633 41.6349 29.433 42.9625 28.8346L44.346 24.1749L48.1116 24.1667C49.0151 22.6498 49.6182 20.9018 49.8293 19.0221L46.5807 16.4673L48.1964 11.0253C46.8117 8.62751 44.6833 6.7886 42.1628 5.89055L38.7383 8.66857L35.1297 5.89496ZM43.4375 15.8337L38.6525 12.0549L33.8675 15.8337L35.6952 21.948H41.6098L43.4375 15.8337Z" fill="#1D9FB9"/>
<path d="M61.182 14.187C60.4453 14.187 59.7597 14.102 59.125 13.932C58.4903 13.762 57.9633 13.5297 57.544 13.235L58.156 11.569C58.5753 11.8297 59.0513 12.0393 59.584 12.198C60.128 12.3453 60.6663 12.419 61.199 12.419C61.675 12.419 62.0263 12.3453 62.253 12.198C62.4797 12.0393 62.593 11.8353 62.593 11.586C62.593 11.1893 62.304 10.94 61.726 10.838L59.941 10.515C59.227 10.3903 58.683 10.1353 58.309 9.75C57.935 9.36467 57.748 8.86033 57.748 8.237C57.748 7.67033 57.9067 7.183 58.224 6.775C58.5413 6.367 58.9777 6.04967 59.533 5.823C60.0883 5.59633 60.7287 5.483 61.454 5.483C62.0547 5.483 62.6383 5.56233 63.205 5.721C63.7717 5.86833 64.259 6.10633 64.667 6.435L64.021 8.084C63.681 7.83467 63.273 7.63067 62.797 7.472C62.3323 7.31333 61.896 7.234 61.488 7.234C60.978 7.234 60.6097 7.319 60.383 7.489C60.1563 7.64767 60.043 7.85167 60.043 8.101C60.043 8.49767 60.3093 8.747 60.842 8.849L62.627 9.172C63.3637 9.29667 63.9247 9.546 64.31 9.92C64.6953 10.2827 64.888 10.7813 64.888 11.416C64.888 12.2887 64.548 12.9687 63.868 13.456C63.188 13.9433 62.2927 14.187 61.182 14.187ZM69.9572 14.187C69.0619 14.187 68.2799 14.0113 67.6112 13.66C66.9539 13.2973 66.4439 12.793 66.0812 12.147C65.7185 11.4897 65.5372 10.7133 65.5372 9.818C65.5372 8.934 65.7185 8.169 66.0812 7.523C66.4439 6.86567 66.9539 6.36133 67.6112 6.01C68.2799 5.65867 69.0619 5.483 69.9572 5.483C70.8525 5.483 71.6289 5.65867 72.2862 6.01C72.9549 6.36133 73.4705 6.86567 73.8332 7.523C74.2072 8.169 74.3942 8.934 74.3942 9.818C74.3942 10.7133 74.2072 11.4897 73.8332 12.147C73.4705 12.793 72.9549 13.2973 72.2862 13.66C71.6289 14.0113 70.8525 14.187 69.9572 14.187ZM69.9572 12.266C70.5012 12.266 70.9432 12.0677 71.2832 11.671C71.6345 11.2743 71.8102 10.6567 71.8102 9.818C71.8102 8.99067 71.6345 8.38433 71.2832 7.999C70.9432 7.60233 70.5012 7.404 69.9572 7.404C69.4132 7.404 68.9712 7.60233 68.6312 7.999C68.2912 8.38433 68.1212 8.99067 68.1212 9.818C68.1212 10.6567 68.2912 11.2743 68.6312 11.671C68.9712 12.0677 69.4132 12.266 69.9572 12.266ZM79.6109 14.187C78.7043 14.187 77.9109 14.0113 77.2309 13.66C76.5623 13.2973 76.0466 12.7873 75.6839 12.13C75.3213 11.4727 75.1399 10.6963 75.1399 9.801C75.1399 8.90567 75.3213 8.135 75.6839 7.489C76.0466 6.843 76.5623 6.35 77.2309 6.01C77.9109 5.65867 78.7043 5.483 79.6109 5.483C80.1436 5.483 80.6819 5.56233 81.2259 5.721C81.7699 5.87967 82.2119 6.10633 82.5519 6.401L81.8379 8.169C81.5546 7.94233 81.2373 7.76667 80.8859 7.642C80.5346 7.506 80.1946 7.438 79.8659 7.438C79.1973 7.438 78.6759 7.64767 78.3019 8.067C77.9393 8.475 77.7579 9.05867 77.7579 9.818C77.7579 10.566 77.9393 11.1553 78.3019 11.586C78.6759 12.0053 79.1973 12.215 79.8659 12.215C80.1833 12.215 80.5176 12.1527 80.8689 12.028C81.2316 11.9033 81.5546 11.722 81.8379 11.484L82.5519 13.252C82.2119 13.5467 81.7699 13.779 81.2259 13.949C80.6819 14.1077 80.1436 14.187 79.6109 14.187ZM87.1551 14.187C86.2484 14.187 85.4551 14.0113 84.7751 13.66C84.1064 13.2973 83.5907 12.7873 83.2281 12.13C82.8654 11.4727 82.6841 10.6963 82.6841 9.801C82.6841 8.90567 82.8654 8.135 83.2281 7.489C83.5907 6.843 84.1064 6.35 84.7751 6.01C85.4551 5.65867 86.2484 5.483 87.1551 5.483C87.6877 5.483 88.2261 5.56233 88.7701 5.721C89.3141 5.87967 89.7561 6.10633 90.0961 6.401L89.3821 8.169C89.0987 7.94233 88.7814 7.76667 88.4301 7.642C88.0787 7.506 87.7387 7.438 87.4101 7.438C86.7414 7.438 86.2201 7.64767 85.8461 8.067C85.4834 8.475 85.3021 9.05867 85.3021 9.818C85.3021 10.566 85.4834 11.1553 85.8461 11.586C86.2201 12.0053 86.7414 12.215 87.4101 12.215C87.7274 12.215 88.0617 12.1527 88.4131 12.028C88.7757 11.9033 89.0987 11.722 89.3821 11.484L90.0961 13.252C89.7561 13.5467 89.3141 13.779 88.7701 13.949C88.2261 14.1077 87.6877 14.187 87.1551 14.187ZM94.9712 14.187C93.9852 14.187 93.1352 14.0113 92.4212 13.66C91.7186 13.2973 91.1746 12.793 90.7892 12.147C90.4152 11.4897 90.2282 10.719 90.2282 9.835C90.2282 8.97367 90.4096 8.22 90.7722 7.574C91.1462 6.91667 91.6506 6.40667 92.2852 6.044C92.9312 5.67 93.6736 5.483 94.5122 5.483C95.7249 5.483 96.6882 5.86833 97.4022 6.639C98.1162 7.39833 98.4732 8.42967 98.4732 9.733V10.379H92.6762C92.7669 11.0363 93.0049 11.518 93.3902 11.824C93.7869 12.1187 94.3309 12.266 95.0222 12.266C95.4756 12.266 95.9346 12.198 96.3992 12.062C96.8639 11.926 97.2832 11.7163 97.6572 11.433L98.3372 13.15C97.9179 13.4673 97.4022 13.7223 96.7902 13.915C96.1896 14.0963 95.5832 14.187 94.9712 14.187ZM94.6142 7.183C94.0702 7.183 93.6282 7.34733 93.2882 7.676C92.9596 8.00467 92.7556 8.46367 92.6762 9.053H96.3482C96.2802 7.80633 95.7022 7.183 94.6142 7.183ZM99.5583 14V5.653H102.074V7.098C102.471 6.12333 103.321 5.585 104.624 5.483L105.372 5.432L105.525 7.591L104.08 7.744C102.811 7.86867 102.176 8.51467 102.176 9.682V14H99.5583ZM57.986 31V22.653H60.502V23.877C60.7853 23.4237 61.165 23.078 61.641 22.84C62.117 22.602 62.6497 22.483 63.239 22.483C64.225 22.483 64.9617 22.772 65.449 23.35C65.9363 23.9167 66.18 24.795 66.18 25.985V31H63.613V26.104C63.613 25.526 63.5053 25.1123 63.29 24.863C63.0747 24.6023 62.7573 24.472 62.338 24.472C61.794 24.472 61.3577 24.642 61.029 24.982C60.7117 25.322 60.553 25.7753 60.553 26.342V31H57.986ZM72.0234 31.187C71.0374 31.187 70.1874 31.0113 69.4734 30.66C68.7707 30.2973 68.2267 29.793 67.8414 29.147C67.4674 28.4897 67.2804 27.719 67.2804 26.835C67.2804 25.9737 67.4617 25.22 67.8244 24.574C68.1984 23.9167 68.7027 23.4067 69.3374 23.044C69.9834 22.67 70.7257 22.483 71.5644 22.483C72.777 22.483 73.7404 22.8683 74.4544 23.639C75.1684 24.3983 75.5254 25.4297 75.5254 26.733V27.379H69.7284C69.819 28.0363 70.057 28.518 70.4424 28.824C70.839 29.1187 71.383 29.266 72.0744 29.266C72.5277 29.266 72.9867 29.198 73.4514 29.062C73.916 28.926 74.3354 28.7163 74.7094 28.433L75.3894 30.15C74.97 30.4673 74.4544 30.7223 73.8424 30.915C73.2417 31.0963 72.6354 31.187 72.0234 31.187ZM71.6664 24.183C71.1224 24.183 70.6804 24.3473 70.3404 24.676C70.0117 25.0047 69.8077 25.4637 69.7284 26.053H73.4004C73.3324 24.8063 72.7544 24.183 71.6664 24.183ZM80.6576 31.187C78.3116 31.187 77.1386 30.048 77.1386 27.77V24.574H75.5576V22.653H77.1386V20.205H79.7056V22.653H82.1706V24.574H79.7056V27.668C79.7056 28.144 79.8133 28.501 80.0286 28.739C80.2553 28.977 80.6123 29.096 81.0996 29.096C81.247 29.096 81.4 29.079 81.5586 29.045C81.7286 29.011 81.91 28.9657 82.1026 28.909L82.4766 30.779C82.2386 30.9037 81.9553 31 81.6266 31.068C81.298 31.1473 80.975 31.187 80.6576 31.187ZM85.5381 31L82.1381 22.653H84.7391L86.7281 28.008L88.7171 22.653H90.4171L92.4061 28.076L94.3951 22.653H96.8601L93.4941 31H91.3181L89.4821 26.257L87.6971 31H85.5381ZM101.222 31.187C100.327 31.187 99.5451 31.0113 98.8764 30.66C98.2191 30.2973 97.7091 29.793 97.3464 29.147C96.9838 28.4897 96.8024 27.7133 96.8024 26.818C96.8024 25.934 96.9838 25.169 97.3464 24.523C97.7091 23.8657 98.2191 23.3613 98.8764 23.01C99.5451 22.6587 100.327 22.483 101.222 22.483C102.118 22.483 102.894 22.6587 103.551 23.01C104.22 23.3613 104.736 23.8657 105.098 24.523C105.472 25.169 105.659 25.934 105.659 26.818C105.659 27.7133 105.472 28.4897 105.098 29.147C104.736 29.793 104.22 30.2973 103.551 30.66C102.894 31.0113 102.118 31.187 101.222 31.187ZM101.222 29.266C101.766 29.266 102.208 29.0677 102.548 28.671C102.9 28.2743 103.075 27.6567 103.075 26.818C103.075 25.9907 102.9 25.3843 102.548 24.999C102.208 24.6023 101.766 24.404 101.222 24.404C100.678 24.404 100.236 24.6023 99.8964 24.999C99.5564 25.3843 99.3864 25.9907 99.3864 26.818C99.3864 27.6567 99.5564 28.2743 99.8964 28.671C100.236 29.0677 100.678 29.266 101.222 29.266ZM106.813 31V22.653H109.329V24.098C109.726 23.1233 110.576 22.585 111.879 22.483L112.627 22.432L112.78 24.591L111.335 24.744C110.066 24.8687 109.431 25.5147 109.431 26.682V31H106.813ZM113.411 31V19.015H115.978V26.104H116.012L119.089 22.653H122.132L118.596 26.648L122.302 31H119.208L116.012 27.396H115.978V31H113.411Z" fill="black"/>
</g>
<defs>
<clipPath id="clip0_261_2718">
<rect width="122" height="34" fill="white"/>
</clipPath>
</defs>
</svg>
